# Blender 3.6.5
# www.blender.org
mtllib Road.mtl
o Road_Crossroads_1
v -0.105000 0.002229 0.105000
v 0.210000 0.002229 -0.105000
v 0.210000 0.002229 -0.095415
v 0.210000 0.002229 -0.098845
v 0.131245 0.002229 0.095409
v 0.131245 0.002229 -0.095415
v 0.105000 0.002229 -0.095415
v 0.105000 0.002229 -0.098845
v 0.210000 0.002229 0.095409
v 0.105000 0.002229 0.095409
v 0.210000 0.002229 0.098841
v 0.105000 0.002229 0.098841
v 0.210000 0.002229 0.105000
v 0.105000 0.002229 0.105000
v 0.147005 0.002229 -0.147000
v 0.183745 0.002229 0.095409
v 0.183745 0.002229 -0.095415
v 0.147005 0.004177 -0.147000
v 0.183745 0.002229 0.075505
v 0.131245 0.002229 0.075505
v 0.183745 0.002229 0.051798
v 0.183745 0.002229 0.067460
v 0.131245 0.002229 0.067460
v 0.131245 0.002229 0.051798
v 0.183745 0.002229 0.027945
v 0.183745 0.002229 0.043607
v 0.131245 0.002229 0.043607
v 0.131245 0.002229 0.027945
v 0.183745 0.002229 0.004092
v 0.183745 0.002229 0.019754
v 0.131245 0.002229 0.019754
v 0.131245 0.002229 0.004092
v 0.183745 0.002229 -0.019761
v 0.183745 0.002229 -0.004099
v 0.131245 0.002229 -0.004099
v 0.131245 0.002229 -0.019761
v 0.183745 0.002229 -0.043614
v 0.183745 0.002229 -0.027952
v 0.131245 0.002229 -0.027952
v 0.131245 0.002229 -0.043614
v 0.183745 0.002229 -0.067467
v 0.183745 0.002229 -0.051805
v 0.131245 0.002229 -0.051805
v 0.131245 0.002229 -0.067467
v 0.131245 0.002229 -0.075510
v 0.183745 0.002229 -0.075510
v 0.183745 0.002229 -0.090415
v 0.131245 0.002229 -0.090415
v 0.131245 0.002229 0.090414
v 0.183745 0.002229 0.090414
v -0.210000 0.002229 0.105000
v -0.095413 0.002229 0.095413
v -0.210000 0.002229 0.095415
v -0.210000 0.002229 0.098845
v -0.131255 0.002229 -0.095409
v -0.131255 0.002229 0.095415
v -0.105000 0.002229 0.095415
v -0.105000 0.002229 0.098845
v -0.210000 0.002229 -0.095409
v -0.105000 0.002229 -0.095409
v -0.210000 0.002229 -0.098841
v -0.105000 0.002229 -0.098841
v -0.210000 0.002229 -0.105000
v -0.105000 0.002229 -0.105000
v 0.095413 0.002229 0.095413
v -0.183755 0.002229 -0.095409
v -0.183755 0.002229 0.095415
v -0.105000 0.004176 0.210000
v -0.183755 0.002229 -0.075505
v -0.131255 0.002229 -0.075505
v -0.183755 0.002229 -0.051798
v -0.183755 0.002229 -0.067460
v -0.131255 0.002229 -0.067460
v -0.131255 0.002229 -0.051798
v -0.183755 0.002229 -0.027945
v -0.183755 0.002229 -0.043607
v -0.131255 0.002229 -0.043607
v -0.131255 0.002229 -0.027945
v -0.183755 0.002229 -0.004092
v -0.183755 0.002229 -0.019754
v -0.131255 0.002229 -0.019754
v -0.131255 0.002229 -0.004092
v -0.183755 0.002229 0.019761
v -0.183755 0.002229 0.004099
v -0.131255 0.002229 0.004099
v -0.131255 0.002229 0.019761
v -0.183755 0.002229 0.043614
v -0.183755 0.002229 0.027952
v -0.131255 0.002229 0.027952
v -0.131255 0.002229 0.043614
v -0.183755 0.002229 0.067467
v -0.183755 0.002229 0.051805
v -0.131255 0.002229 0.051805
v -0.131255 0.002229 0.067467
v -0.131255 0.002229 0.075510
v -0.183755 0.002229 0.075510
v -0.183755 0.002229 0.090415
v -0.131255 0.002229 0.090415
v -0.131255 0.002229 -0.090414
v -0.183755 0.002229 -0.090414
v -0.098837 0.002229 -0.098847
v 0.105000 0.002229 0.210000
v 0.095415 0.002229 0.210000
v 0.098845 0.002229 0.210000
v -0.095409 0.002229 0.131245
v 0.095415 0.002229 0.131245
v -0.095413 0.002229 -0.095414
v 0.147000 0.004176 0.210000
v -0.095409 0.002229 0.210000
v -0.095409 0.002229 0.105000
v -0.098841 0.002229 0.210000
v 0.147000 0.002229 0.210000
v -0.105000 0.002229 0.210000
v 0.210000 0.004177 0.105000
v -0.095409 0.002229 0.183745
v 0.095415 0.002229 0.183745
v -0.098847 0.002229 0.098836
v -0.075505 0.002229 0.183745
v -0.075505 0.002229 0.131245
v -0.051799 0.002229 0.183745
v -0.067461 0.002229 0.183745
v -0.067461 0.002229 0.131245
v -0.051799 0.002229 0.131245
v -0.027946 0.002229 0.183745
v -0.043608 0.002229 0.183745
v -0.043608 0.002229 0.131245
v -0.027946 0.002229 0.131245
v -0.004093 0.002229 0.183745
v -0.019755 0.002229 0.183745
v -0.019755 0.002229 0.131245
v -0.004093 0.002229 0.131245
v 0.019760 0.002229 0.183745
v 0.004098 0.002229 0.183745
v 0.004098 0.002229 0.131245
v 0.019760 0.002229 0.131245
v 0.043614 0.002229 0.183745
v 0.027951 0.002229 0.183745
v 0.027951 0.002229 0.131245
v 0.043614 0.002229 0.131245
v 0.067467 0.002229 0.183745
v 0.051805 0.002229 0.183745
v 0.051805 0.002229 0.131245
v 0.067467 0.002229 0.131245
v 0.075510 0.002229 0.131245
v 0.075510 0.002229 0.183745
v 0.090415 0.002229 0.183745
v 0.090415 0.002229 0.131245
v -0.090414 0.002229 0.131245
v -0.090414 0.002229 0.183745
v 0.105000 0.004177 0.105000
v -0.105000 0.002229 -0.210000
v -0.095415 0.002229 -0.210000
v -0.098845 0.002229 -0.210000
v 0.095409 0.002229 -0.131245
v -0.095415 0.002229 -0.131245
v 0.210000 0.002229 0.147005
v -0.098845 0.002229 -0.105000
v 0.095409 0.002229 -0.210000
v 0.210000 0.004177 0.147005
v 0.098841 0.002229 -0.210000
v 0.147000 0.002229 0.147005
v 0.147000 0.004177 0.147005
v 0.105000 0.002229 -0.105000
v 0.095409 0.002229 -0.183745
v -0.095415 0.002229 -0.183745
v 0.210000 0.004176 -0.105000
v 0.075505 0.002229 -0.183745
v 0.075505 0.002229 -0.131245
v 0.051798 0.002229 -0.183745
v 0.067460 0.002229 -0.183745
v 0.067460 0.002229 -0.131245
v 0.051798 0.002229 -0.131245
v 0.027946 0.002229 -0.183745
v 0.043608 0.002229 -0.183745
v 0.043608 0.002229 -0.131245
v 0.027946 0.002229 -0.131245
v 0.004092 0.002229 -0.183745
v 0.019755 0.002229 -0.183745
v 0.019755 0.002229 -0.131245
v 0.004092 0.002229 -0.131245
v -0.019761 0.002229 -0.183745
v -0.004098 0.002229 -0.183745
v -0.004098 0.002229 -0.131245
v -0.019761 0.002229 -0.131245
v -0.043614 0.002229 -0.183745
v -0.027951 0.002229 -0.183745
v -0.027951 0.002229 -0.131245
v -0.043614 0.002229 -0.131245
v -0.067467 0.002229 -0.183745
v -0.051804 0.002229 -0.183745
v -0.051804 0.002229 -0.131245
v -0.067467 0.002229 -0.131245
v -0.075510 0.002229 -0.131245
v -0.075510 0.002229 -0.183745
v -0.090415 0.002229 -0.183745
v -0.090415 0.002229 -0.131245
v 0.090414 0.002229 -0.131245
v 0.090414 0.002229 -0.183745
v 0.105000 0.002229 -0.210000
v 0.105000 0.004176 0.210000
v -0.098845 0.002229 0.105000
v 0.095415 0.002229 -0.105000
v 0.098845 0.002229 -0.105000
v 0.095409 0.002229 0.105000
v 0.098841 0.002229 0.105000
v -0.095409 0.002229 -0.105000
v -0.147000 0.004176 0.210000
v -0.147000 0.002229 0.210000
v 0.098847 0.002229 -0.098847
v -0.210000 0.004177 0.105000
v -0.105000 0.004177 0.105000
v 0.095413 0.002229 -0.095414
v 0.098837 0.002229 0.098836
v -0.210000 0.002229 0.147005
v -0.210000 0.004177 0.147005
v -0.210000 0.004176 -0.147000
v -0.210000 0.002229 -0.147000
v -0.105000 0.004177 -0.210000
v -0.147000 0.002229 0.147005
v -0.147000 0.004177 0.147005
v -0.105000 0.004177 -0.105000
v -0.147005 0.002229 -0.210000
v -0.147005 0.004177 -0.210000
v -0.147005 0.002229 -0.147000
v -0.147005 0.004177 -0.147000
v -0.210000 0.004176 -0.105000
v 0.210000 0.004176 -0.147000
v 0.210000 0.002229 -0.147000
v 0.105000 0.004177 -0.210000
v 0.105000 0.004177 -0.105000
v 0.147005 0.002229 -0.210000
v 0.147005 0.004177 -0.210000
vn -0.0000 1.0000 -0.0000
vn -0.0000 -0.0000 -1.0000
vn 1.0000 -0.0000 -0.0000
vn -0.0000 -0.0000 1.0000
vn -1.0000 -0.0000 -0.0000
vt 0.026007 0.655641
vt 0.026119 0.655641
vt 0.026119 0.656494
vt 0.026119 0.658200
vt 0.026119 0.659053
vt 0.026007 0.659053
vt 0.081607 0.462602
vt 0.081607 0.469833
vt 0.080612 0.469833
vt 0.080612 0.469643
vt 0.080612 0.469079
vt 0.080612 0.468774
vt 0.080612 0.468180
vt 0.080612 0.467870
vt 0.080612 0.467276
vt 0.080612 0.466966
vt 0.080612 0.466373
vt 0.080612 0.466062
vt 0.080612 0.465469
vt 0.080612 0.465158
vt 0.080612 0.464565
vt 0.080612 0.464254
vt 0.080612 0.463661
vt 0.080612 0.463356
vt 0.080612 0.462791
vt 0.080612 0.462602
vt 0.018506 0.658200
vt 0.018506 0.656494
vt 0.018506 0.655641
vt 0.018618 0.655641
vt 0.018618 0.659053
vt 0.018506 0.659053
vt 0.068676 0.469643
vt 0.068676 0.469078
vt 0.068676 0.468774
vt 0.068676 0.468180
vt 0.068676 0.467870
vt 0.068676 0.467276
vt 0.068676 0.466966
vt 0.068676 0.466372
vt 0.068676 0.466062
vt 0.068676 0.465468
vt 0.068676 0.465158
vt 0.068676 0.464565
vt 0.068676 0.464254
vt 0.068676 0.463661
vt 0.068676 0.463356
vt 0.068676 0.462791
vt 0.068676 0.462602
vt 0.069670 0.462602
vt 0.069670 0.469833
vt 0.068676 0.469833
vt 0.021918 0.655051
vt 0.021918 0.655163
vt 0.021065 0.655163
vt 0.019359 0.655163
vt 0.018506 0.655163
vt 0.018506 0.655051
vt 0.077076 0.471191
vt 0.076511 0.471191
vt 0.076206 0.471191
vt 0.075612 0.471191
vt 0.075302 0.471191
vt 0.074708 0.471191
vt 0.074398 0.471191
vt 0.073804 0.471191
vt 0.073494 0.471191
vt 0.072901 0.471191
vt 0.072590 0.471191
vt 0.071997 0.471191
vt 0.071686 0.471191
vt 0.071093 0.471191
vt 0.070788 0.471191
vt 0.070223 0.471191
vt 0.070034 0.471191
vt 0.070034 0.470196
vt 0.077265 0.470196
vt 0.077265 0.471191
vt 0.077265 0.459254
vt 0.077076 0.459254
vt 0.076511 0.459254
vt 0.076206 0.459254
vt 0.075612 0.459254
vt 0.075302 0.459254
vt 0.074709 0.459254
vt 0.074398 0.459254
vt 0.073805 0.459254
vt 0.073494 0.459254
vt 0.072901 0.459254
vt 0.072590 0.459254
vt 0.071997 0.459254
vt 0.071687 0.459254
vt 0.071093 0.459254
vt 0.070788 0.459254
vt 0.070223 0.459254
vt 0.070034 0.459254
vt 0.070034 0.458259
vt 0.077265 0.458259
vt 0.078623 0.462791
vt 0.078623 0.463356
vt 0.078623 0.463661
vt 0.078623 0.464254
vt 0.078623 0.464565
vt 0.078623 0.465158
vt 0.078623 0.465469
vt 0.078623 0.466062
vt 0.078623 0.466373
vt 0.078623 0.466966
vt 0.078623 0.467276
vt 0.078623 0.467870
vt 0.078623 0.468180
vt 0.078623 0.468774
vt 0.078623 0.469079
vt 0.078623 0.469643
vt 0.078623 0.469833
vt 0.077628 0.469833
vt 0.077628 0.462602
vt 0.078623 0.462602
vt 0.022507 0.654851
vt 0.022396 0.654851
vt 0.022396 0.653998
vt 0.022396 0.652293
vt 0.022396 0.651440
vt 0.022507 0.651440
vt 0.077265 0.469833
vt 0.070034 0.469833
vt 0.070034 0.462602
vt 0.070034 0.462238
vt 0.077265 0.462238
vt 0.077265 0.462602
vt 0.022229 0.652293
vt 0.022229 0.653998
vt 0.022229 0.654851
vt 0.022118 0.654851
vt 0.022118 0.651440
vt 0.022229 0.651440
vt 0.026007 0.655441
vt 0.025807 0.655441
vt 0.025807 0.655330
vt 0.026119 0.655330
vt 0.066687 0.462602
vt 0.066687 0.462791
vt 0.066687 0.463356
vt 0.066687 0.463661
vt 0.066687 0.464254
vt 0.066687 0.464565
vt 0.066687 0.465158
vt 0.066687 0.465468
vt 0.066687 0.466062
vt 0.066687 0.466372
vt 0.066687 0.466966
vt 0.066687 0.467276
vt 0.066687 0.467870
vt 0.066687 0.468180
vt 0.066687 0.468774
vt 0.066687 0.469078
vt 0.066687 0.469643
vt 0.066687 0.469833
vt 0.065692 0.469833
vt 0.065692 0.462602
vt 0.070223 0.461243
vt 0.070788 0.461243
vt 0.071093 0.461243
vt 0.071687 0.461243
vt 0.071997 0.461243
vt 0.072590 0.461243
vt 0.072901 0.461243
vt 0.073494 0.461243
vt 0.073805 0.461243
vt 0.074398 0.461243
vt 0.074709 0.461243
vt 0.075302 0.461243
vt 0.075612 0.461243
vt 0.076206 0.461243
vt 0.076511 0.461243
vt 0.077076 0.461243
vt 0.077265 0.461243
vt 0.070034 0.461243
vt 0.022118 0.655052
vt 0.022229 0.655163
vt 0.022507 0.655051
vt 0.022707 0.655051
vt 0.022707 0.655163
vt 0.022396 0.655163
vt 0.018818 0.655441
vt 0.018818 0.655329
vt 0.019670 0.655330
vt 0.021376 0.655330
vt 0.022229 0.655330
vt 0.022229 0.655441
vt 0.023249 0.655329
vt 0.024955 0.655329
vt 0.022396 0.655441
vt 0.022396 0.655329
vt 0.025266 0.655163
vt 0.023560 0.655163
vt 0.026119 0.655052
vt 0.026119 0.655163
vt 0.018617 0.655441
vt 0.018506 0.655330
vt 0.077265 0.474175
vt 0.070034 0.474175
vt 0.070034 0.473180
vt 0.070223 0.473180
vt 0.070788 0.473180
vt 0.071093 0.473180
vt 0.071686 0.473180
vt 0.071997 0.473180
vt 0.072590 0.473180
vt 0.072901 0.473180
vt 0.073494 0.473180
vt 0.073804 0.473180
vt 0.074398 0.473180
vt 0.074708 0.473180
vt 0.075302 0.473180
vt 0.075612 0.473180
vt 0.076206 0.473180
vt 0.076511 0.473180
vt 0.077076 0.473180
vt 0.077265 0.473180
vt 0.083388 0.453920
vt 0.083621 0.453920
vt 0.083621 0.457899
vt 0.083388 0.457899
vt 0.065692 0.453920
vt 0.065925 0.453920
vt 0.065925 0.457899
vt 0.065692 0.457899
vt 0.028516 0.462135
vt 0.029028 0.462135
vt 0.029028 0.463937
vt 0.028516 0.463937
vt 0.022545 0.702977
vt 0.022545 0.705789
vt 0.020670 0.705789
vt 0.020670 0.701103
vt 0.030796 0.705789
vt 0.030709 0.705789
vt 0.030709 0.702978
vt 0.030796 0.702978
vt 0.031916 0.705789
vt 0.031829 0.705789
vt 0.031829 0.702977
vt 0.031916 0.702977
vt 0.027469 0.653436
vt 0.026985 0.653436
vt 0.026985 0.651730
vt 0.027469 0.651730
vt 0.025356 0.701103
vt 0.025356 0.702977
vt 0.028361 0.698098
vt 0.025549 0.698098
vt 0.025549 0.696223
vt 0.030236 0.696223
vt 0.031829 0.700910
vt 0.031829 0.696223
vt 0.031916 0.696223
vt 0.031916 0.700910
vt 0.030429 0.705789
vt 0.030429 0.702978
vt 0.030516 0.702978
vt 0.030516 0.705789
vt 0.031636 0.702977
vt 0.031636 0.705789
vt 0.031549 0.705789
vt 0.031549 0.702977
vt 0.031549 0.696223
vt 0.031636 0.696223
vt 0.031636 0.700910
vt 0.031549 0.700910
vt 0.030236 0.700910
vt 0.028361 0.700910
vt 0.026285 0.651730
vt 0.026794 0.651730
vt 0.026794 0.653436
vt 0.026285 0.653436
vt 0.032861 0.464016
vt 0.033399 0.464016
vt 0.033399 0.465819
vt 0.032861 0.465819
vt 0.026960 0.655475
vt 0.027469 0.655475
vt 0.027469 0.657181
vt 0.026960 0.657181
vt 0.032245 0.464016
vt 0.032783 0.464016
vt 0.032783 0.465819
vt 0.032245 0.465819
vt 0.026960 0.657347
vt 0.027469 0.657347
vt 0.027469 0.659053
vt 0.026960 0.659053
vt 0.031013 0.464016
vt 0.031551 0.464016
vt 0.031551 0.465819
vt 0.031013 0.465819
vt 0.075070 0.457666
vt 0.074837 0.457666
vt 0.074837 0.453687
vt 0.075070 0.453687
vt 0.074476 0.457666
vt 0.074243 0.457666
vt 0.074243 0.453687
vt 0.074476 0.453687
vt 0.033989 0.465819
vt 0.033478 0.465819
vt 0.033478 0.464016
vt 0.033989 0.464016
vt 0.026985 0.653603
vt 0.027469 0.653603
vt 0.027469 0.655308
vt 0.026985 0.655308
vt 0.026794 0.655308
vt 0.026285 0.655308
vt 0.026285 0.653603
vt 0.026794 0.653603
vt 0.030935 0.465819
vt 0.030397 0.465819
vt 0.030397 0.464016
vt 0.030935 0.464016
vt 0.026794 0.659053
vt 0.026285 0.659053
vt 0.026285 0.657347
vt 0.026794 0.657347
vt 0.032167 0.465819
vt 0.031629 0.465819
vt 0.031629 0.464016
vt 0.032167 0.464016
vt 0.026794 0.657181
vt 0.026285 0.657181
vt 0.026285 0.655475
vt 0.026794 0.655475
vt 0.029054 0.467667
vt 0.028516 0.467667
vt 0.028516 0.465864
vt 0.029054 0.465864
vt 0.065925 0.453687
vt 0.069904 0.453687
vt 0.069904 0.453920
vt 0.031356 0.700910
vt 0.031269 0.700910
vt 0.031269 0.696223
vt 0.031356 0.696223
vt 0.075070 0.457899
vt 0.079049 0.457666
vt 0.079049 0.457899
vt 0.029132 0.463937
vt 0.029132 0.463426
vt 0.030935 0.463426
vt 0.030935 0.463937
vt 0.032109 0.700910
vt 0.032109 0.696223
vt 0.032195 0.696223
vt 0.032195 0.700910
vt 0.083388 0.453687
vt 0.083621 0.453687
vt 0.023956 0.650114
vt 0.023956 0.650598
vt 0.022250 0.650598
vt 0.022250 0.650114
vt 0.020378 0.651273
vt 0.020378 0.650765
vt 0.022084 0.650765
vt 0.022084 0.651273
vt 0.028516 0.465786
vt 0.028516 0.465248
vt 0.030319 0.465248
vt 0.030319 0.465786
vt 0.022250 0.651273
vt 0.022250 0.650765
vt 0.023956 0.650765
vt 0.023956 0.651273
vt 0.028516 0.465170
vt 0.028516 0.464632
vt 0.030319 0.464632
vt 0.030319 0.465170
vt 0.018506 0.651273
vt 0.018506 0.650765
vt 0.020212 0.650765
vt 0.020212 0.651273
vt 0.029132 0.466435
vt 0.029132 0.465897
vt 0.030935 0.465897
vt 0.030935 0.466435
vt 0.074243 0.457899
vt 0.070264 0.457899
vt 0.070264 0.457666
vt 0.074476 0.457899
vt 0.079409 0.453920
vt 0.079409 0.453687
vt 0.032816 0.467129
vt 0.032816 0.467641
vt 0.031013 0.467641
vt 0.031013 0.467129
vt 0.074837 0.457899
vt 0.024123 0.650598
vt 0.024123 0.650114
vt 0.025828 0.650114
vt 0.025828 0.650598
vt 0.065692 0.453687
vt 0.025549 0.696030
vt 0.025549 0.695943
vt 0.028361 0.695943
vt 0.028361 0.696030
vt 0.031076 0.705789
vt 0.030989 0.705789
vt 0.030989 0.702977
vt 0.031076 0.702977
vt 0.025356 0.696223
vt 0.025356 0.698098
vt 0.022545 0.698098
vt 0.020670 0.696223
vt 0.030709 0.696223
vt 0.030796 0.696223
vt 0.030796 0.700910
vt 0.030709 0.700910
vt 0.030429 0.700910
vt 0.030429 0.696223
vt 0.030516 0.696223
vt 0.030516 0.700910
vt 0.022545 0.700910
vt 0.020670 0.700910
vt 0.027424 0.703915
vt 0.030236 0.703915
vt 0.030236 0.705789
vt 0.025549 0.705789
vt 0.030989 0.700910
vt 0.030989 0.696223
vt 0.031076 0.696223
vt 0.031076 0.700910
vt 0.020670 0.695663
vt 0.023482 0.695663
vt 0.023482 0.695750
vt 0.020670 0.695750
vt 0.020212 0.650089
vt 0.020212 0.650598
vt 0.018506 0.650598
vt 0.018506 0.650089
vt 0.030935 0.466513
vt 0.030935 0.467051
vt 0.029132 0.467051
vt 0.029132 0.466513
vt 0.022084 0.650089
vt 0.022084 0.650598
vt 0.020378 0.650598
vt 0.020378 0.650089
vt 0.030319 0.464016
vt 0.030319 0.464554
vt 0.028516 0.464554
vt 0.028516 0.464016
vt 0.025828 0.650765
vt 0.025828 0.651273
vt 0.024123 0.651273
vt 0.024123 0.650765
vt 0.030935 0.467129
vt 0.030935 0.467667
vt 0.029132 0.467667
vt 0.029132 0.467129
vt 0.031269 0.705789
vt 0.031269 0.702977
vt 0.031356 0.702977
vt 0.031356 0.705789
vt 0.020670 0.696030
vt 0.020670 0.695943
vt 0.025356 0.695943
vt 0.025356 0.696030
vt 0.025549 0.701103
vt 0.027424 0.701103
s 1
usemtl Mat
f 8/1/1 7/2/1 6/3/1 17/4/1 3/5/1 4/6/1
f 109/7/1 103/8/1 116/9/1 146/10/1 145/11/1 140/12/1 141/13/1 136/14/1 137/15/1 132/16/1 133/17/1 128/18/1 129/19/1 124/20/1 125/21/1 120/22/1 121/23/1 118/24/1 149/25/1 115/26/1
f 16/27/1 5/28/1 10/29/1 12/30/1 11/31/1 9/32/1
f 197/33/1 168/34/1 171/35/1 172/36/1 175/37/1 176/38/1 179/39/1 180/40/1 183/41/1 184/42/1 187/43/1 188/44/1 191/45/1 192/46/1 193/47/1 196/48/1 155/49/1 206/50/1 202/51/1 154/52/1
f 157/53/1 206/54/1 155/55/1 165/56/1 152/57/1 153/58/1
f 49/59/1 20/60/1 23/61/1 24/62/1 27/63/1 28/64/1 31/65/1 32/66/1 35/67/1 36/68/1 39/69/1 40/70/1 43/71/1 44/72/1 45/73/1 48/74/1 6/75/1 7/76/1 10/77/1 5/78/1
f 67/79/1 97/80/1 96/81/1 91/82/1 92/83/1 87/84/1 88/85/1 83/86/1 84/87/1 79/88/1 80/89/1 75/90/1 76/91/1 71/92/1 72/93/1 69/94/1 100/95/1 66/96/1 59/97/1 53/98/1
f 148/99/1 119/100/1 122/101/1 123/102/1 126/103/1 127/104/1 130/105/1 131/106/1 134/107/1 135/108/1 138/109/1 139/110/1 142/111/1 143/112/1 144/113/1 147/114/1 106/115/1 204/116/1 110/117/1 105/118/1
f 58/119/1 57/120/1 56/121/1 67/122/1 53/123/1 54/124/1
f 65/125/1 10/77/1 7/76/1 212/126/1 202/51/1 206/50/1 107/127/1 60/128/1 57/129/1 52/130/1 110/117/1 204/116/1
f 66/131/1 55/132/1 60/133/1 62/134/1 61/135/1 59/136/1
f 209/137/1 203/138/1 202/139/1 212/140/1 7/2/1 8/1/1
f 165/141/1 195/142/1 194/143/1 189/144/1 190/145/1 185/146/1 186/147/1 181/148/1 182/149/1 177/150/1 178/151/1 173/152/1 174/153/1 169/154/1 170/155/1 167/156/1 198/157/1 164/158/1 158/159/1 152/160/1
f 99/161/1 70/162/1 73/163/1 74/164/1 77/165/1 78/166/1 81/167/1 82/168/1 85/169/1 86/170/1 89/171/1 90/172/1 93/173/1 94/174/1 95/175/1 98/176/1 56/177/1 57/129/1 60/128/1 55/178/1
f 101/179/1 62/134/1 60/133/1 107/180/1 206/54/1 157/53/1
f 117/181/1 201/182/1 110/183/1 52/184/1 57/120/1 58/119/1
f 205/185/1 204/186/1 106/187/1 116/188/1 103/189/1 104/190/1
f 164/191/1 154/192/1 202/139/1 203/138/1 160/193/1 158/194/1
f 115/195/1 105/196/1 110/183/1 201/182/1 111/197/1 109/198/1
f 213/199/1 12/30/1 10/29/1 65/200/1 204/186/1 205/185/1
f 9/201/1 3/202/1 17/203/1 47/204/1 46/205/1 41/206/1 42/207/1 37/208/1 38/209/1 33/210/1 34/211/1 29/212/1 30/213/1 25/214/1 26/215/1 21/216/1 22/217/1 19/218/1 50/219/1 16/220/1
f 163/221/1 8/222/1 4/223/1 2/224/1
f 27/63/1 24/62/1 21/216/1 26/215/1
f 23/61/1 20/60/1 19/218/1 22/217/1
f 183/41/1 180/40/1 177/150/1 182/149/1
f 47/204/1 17/203/1 6/75/1 48/74/1
f 12/225/1 14/226/1 13/227/1 11/228/1
f 48/229/1 45/230/1 46/231/1 47/232/1
f 179/39/1 176/38/1 173/152/1 178/151/1
f 18/233/1 232/234/1 229/235/1 230/236/1
f 227/237/2 228/238/2 15/239/2 18/240/2
f 231/241/3 232/242/3 18/243/3 15/244/3
f 50/245/1 19/246/1 20/247/1 49/248/1
f 166/249/1 227/250/1 18/233/1 230/236/1
f 225/251/1 216/252/1 226/253/1 221/254/1
f 221/255/4 226/256/4 63/257/4 64/258/4
f 224/259/2 217/260/2 216/261/2 225/262/2
f 225/263/5 223/264/5 222/265/5 224/266/5
f 221/267/3 64/268/3 151/269/3 218/270/3
f 218/271/1 223/272/1 225/251/1 221/254/1
f 44/273/1 43/274/1 42/275/1 41/276/1
f 40/277/1 39/278/1 38/279/1 37/280/1
f 191/45/1 188/44/1 185/146/1 190/145/1
f 36/281/1 35/282/1 34/283/1 33/284/1
f 32/285/1 31/286/1 30/287/1 29/288/1
f 187/43/1 184/42/1 181/148/1 186/147/1
f 28/289/1 27/290/1 26/291/1 25/292/1
f 24/293/1 23/294/1 22/295/1 21/296/1
f 49/59/1 5/78/1 16/220/1 50/219/1
f 45/73/1 44/72/1 41/206/1 46/205/1
f 43/71/1 40/70/1 37/208/1 42/207/1
f 39/69/1 36/68/1 33/210/1 38/209/1
f 35/67/1 32/66/1 29/212/1 34/211/1
f 31/65/1 28/64/1 25/214/1 30/213/1
f 1/297/1 58/298/1 54/299/1 51/300/1
f 77/165/1 74/164/1 71/92/1 76/91/1
f 73/163/1 70/162/1 69/94/1 72/93/1
f 97/80/1 67/79/1 56/177/1 98/176/1
f 62/301/1 64/302/1 63/303/1 61/304/1
f 98/305/1 95/306/1 96/307/1 97/308/1
f 100/309/1 69/310/1 70/311/1 99/312/1
f 94/313/1 93/314/1 92/315/1 91/316/1
f 90/317/1 89/318/1 88/319/1 87/320/1
f 86/321/1 85/322/1 84/323/1 83/324/1
f 82/325/1 81/326/1 80/327/1 79/328/1
f 78/329/1 77/330/1 76/331/1 75/332/1
f 74/333/1 73/334/1 72/335/1 71/336/1
f 99/161/1 55/178/1 66/96/1 100/95/1
f 95/175/1 94/174/1 91/82/1 96/81/1
f 93/173/1 90/172/1 87/84/1 92/83/1
f 89/171/1 86/170/1 83/86/1 88/85/1
f 85/169/1 82/168/1 79/88/1 84/87/1
f 81/167/1 78/166/1 75/90/1 80/89/1
f 14/226/1 205/337/1 104/338/1 102/339/1
f 126/103/1 123/102/1 120/22/1 125/21/1
f 122/101/1 119/100/1 118/24/1 121/23/1
f 2/340/4 166/341/4 230/342/4 163/343/4
f 146/10/1 116/9/1 106/115/1 147/114/1
f 201/344/1 1/297/1 113/345/1 111/346/1
f 147/347/1 144/348/1 145/349/1 146/350/1
f 199/351/5 163/352/5 230/353/5 229/354/5
f 203/355/1 209/356/1 8/222/1 163/221/1
f 149/357/1 118/358/1 119/359/1 148/360/1
f 143/361/1 142/362/1 141/363/1 140/364/1
f 139/365/1 138/366/1 137/367/1 136/368/1
f 135/369/1 134/370/1 133/371/1 132/372/1
f 131/373/1 130/374/1 129/375/1 128/376/1
f 127/377/1 126/378/1 125/379/1 124/380/1
f 123/381/1 122/382/1 121/383/1 120/384/1
f 148/99/1 105/118/1 115/26/1 149/25/1
f 144/113/1 143/112/1 140/12/1 145/11/1
f 142/111/1 139/110/1 136/14/1 141/13/1
f 138/109/1 135/108/1 132/16/1 137/15/1
f 134/107/1 131/106/1 128/18/1 133/17/1
f 130/105/1 127/104/1 124/20/1 129/19/1
f 64/302/1 157/385/1 153/386/1 151/387/1
f 175/37/1 172/36/1 169/154/1 174/153/1
f 171/35/1 168/34/1 167/156/1 170/155/1
f 101/388/1 157/385/1 64/302/1 62/301/1
f 195/142/1 165/141/1 155/49/1 196/48/1
f 203/355/1 163/221/1 199/389/1 160/390/1
f 196/391/1 193/392/1 194/393/1 195/394/1
f 201/344/1 117/395/1 58/298/1 1/297/1
f 198/396/1 167/397/1 168/398/1 197/399/1
f 12/225/1 213/400/1 205/337/1 14/226/1
f 108/401/3 112/402/3 161/403/3 162/404/3
f 156/405/4 159/406/4 162/407/4 161/408/4
f 200/409/1 108/410/1 162/411/1 150/412/1
f 102/413/5 200/414/5 150/415/5 14/416/5
f 13/417/2 14/418/2 150/419/2 114/420/2
f 162/411/1 159/421/1 114/422/1 150/412/1
f 220/423/1 207/424/1 68/425/1 211/426/1
f 211/427/3 68/428/3 113/429/3 1/430/3
f 219/431/5 208/432/5 207/433/5 220/434/5
f 192/435/1 191/436/1 190/437/1 189/438/1
f 188/439/1 187/440/1 186/441/1 185/442/1
f 184/443/1 183/444/1 182/445/1 181/446/1
f 180/447/1 179/448/1 178/449/1 177/450/1
f 176/451/1 175/452/1 174/453/1 173/454/1
f 172/455/1 171/456/1 170/457/1 169/458/1
f 197/33/1 154/52/1 164/158/1 198/157/1
f 220/459/4 215/460/4 214/461/4 219/462/4
f 211/463/2 1/464/2 51/465/2 210/466/2
f 210/467/1 215/468/1 220/423/1 211/426/1
f 193/47/1 192/46/1 189/144/1 194/143/1
