# Blender 4.0.1
# www.blender.org
mtllib WallLights.mtl
o Object_32
v -0.264662 1.791949 4.332829
v -0.264662 1.791949 4.365812
v -1.745567 1.791949 4.365812
v -1.745567 1.791949 4.332829
v -0.264662 2.293558 4.332829
v -1.745567 2.293558 4.332829
v -1.745567 2.293558 4.365812
v -0.264662 2.293558 4.365812
v -0.264662 1.791949 4.332829
v -1.745567 1.791949 4.332829
v -1.745567 2.293558 4.332829
v -0.264662 2.293558 4.332829
v -1.745567 1.791949 4.332829
v -1.745567 1.791949 4.365812
v -1.745567 2.293558 4.365812
v -1.745567 2.293558 4.332829
v -1.745567 1.791949 4.365812
v -0.264662 1.791949 4.365812
v -0.264662 2.293558 4.365812
v -1.745567 2.293558 4.365812
v -0.264662 1.791949 4.365812
v -0.264662 1.791949 4.332829
v -0.264662 2.293558 4.332829
v -0.264662 2.293558 4.365812
v -0.790638 1.595696 4.264490
v -0.790638 1.595696 4.297473
v -2.271543 1.595696 4.297472
v -2.271543 1.595696 4.264490
v -0.790638 2.097305 4.264490
v -2.271543 2.097305 4.264490
v -2.271543 2.097305 4.297472
v -0.790638 2.097305 4.297473
v -0.790638 1.595696 4.264490
v -2.271543 1.595696 4.264490
v -2.271543 2.097305 4.264490
v -0.790638 2.097305 4.264490
v -2.271543 1.595696 4.264490
v -2.271543 1.595696 4.297472
v -2.271543 2.097305 4.297472
v -2.271543 2.097305 4.264490
v -2.271543 1.595696 4.297472
v -0.790638 1.595696 4.297473
v -0.790638 2.097305 4.297473
v -2.271543 2.097305 4.297472
v -0.790638 1.595696 4.297473
v -0.790638 1.595696 4.264490
v -0.790638 2.097305 4.264490
v -0.790638 2.097305 4.297473
v -0.479319 1.425920 4.299176
v -0.479319 1.425920 4.332159
v -1.960224 1.425920 4.332159
v -1.960224 1.425920 4.299176
v -0.479319 1.927529 4.299176
v -1.960224 1.927529 4.299176
v -1.960224 1.927529 4.332159
v -0.479319 1.927529 4.332159
v -0.479319 1.425920 4.299176
v -1.960224 1.425920 4.299176
v -1.960224 1.927529 4.299176
v -0.479319 1.927529 4.299176
v -1.960224 1.425920 4.299176
v -1.960224 1.425920 4.332159
v -1.960224 1.927529 4.332159
v -1.960224 1.927529 4.299176
v -1.960224 1.425920 4.332159
v -0.479319 1.425920 4.332159
v -0.479319 1.927529 4.332159
v -1.960224 1.927529 4.332159
v -0.479319 1.425920 4.332159
v -0.479319 1.425920 4.299176
v -0.479319 1.927529 4.299176
v -0.479319 1.927529 4.332159
v 2.498508 1.791949 4.332830
v 2.498508 1.791949 4.365812
v 1.017603 1.791949 4.365812
v 1.017603 1.791949 4.332830
v 2.498508 2.293558 4.332830
v 1.017603 2.293558 4.332830
v 1.017603 2.293558 4.365812
v 2.498508 2.293558 4.365812
v 2.498508 1.791949 4.332830
v 1.017603 1.791949 4.332830
v 1.017603 2.293558 4.332830
v 2.498508 2.293558 4.332830
v 1.017603 1.791949 4.332830
v 1.017603 1.791949 4.365812
v 1.017603 2.293558 4.365812
v 1.017603 2.293558 4.332830
v 1.017603 1.791949 4.365812
v 2.498508 1.791949 4.365812
v 2.498508 2.293558 4.365812
v 1.017603 2.293558 4.365812
v 2.498508 1.791949 4.365812
v 2.498508 1.791949 4.332830
v 2.498508 2.293558 4.332830
v 2.498508 2.293558 4.365812
v 1.972532 1.595696 4.264491
v 1.972532 1.595696 4.297473
v 0.491627 1.595696 4.297473
v 0.491627 1.595696 4.264491
v 1.972532 2.097305 4.264491
v 0.491627 2.097305 4.264491
v 0.491627 2.097305 4.297473
v 1.972532 2.097305 4.297473
v 1.972532 1.595696 4.264491
v 0.491627 1.595696 4.264491
v 0.491627 2.097305 4.264491
v 1.972532 2.097305 4.264491
v 0.491627 1.595696 4.264491
v 0.491627 1.595696 4.297473
v 0.491627 2.097305 4.297473
v 0.491627 2.097305 4.264491
v 0.491627 1.595696 4.297473
v 1.972532 1.595696 4.297473
v 1.972532 2.097305 4.297473
v 0.491627 2.097305 4.297473
v 1.972532 1.595696 4.297473
v 1.972532 1.595696 4.264491
v 1.972532 2.097305 4.264491
v 1.972532 2.097305 4.297473
v 2.283851 1.425920 4.299177
v 2.283851 1.425920 4.332159
v 0.802946 1.425920 4.332159
v 0.802946 1.425920 4.299176
v 2.283851 1.927529 4.299177
v 0.802946 1.927529 4.299176
v 0.802946 1.927529 4.332159
v 2.283851 1.927529 4.332159
v 2.283851 1.425920 4.299177
v 0.802946 1.425920 4.299176
v 0.802946 1.927529 4.299176
v 2.283851 1.927529 4.299177
v 0.802946 1.425920 4.299176
v 0.802946 1.425920 4.332159
v 0.802946 1.927529 4.332159
v 0.802946 1.927529 4.299176
v 0.802946 1.425920 4.332159
v 2.283851 1.425920 4.332159
v 2.283851 1.927529 4.332159
v 0.802946 1.927529 4.332159
v 2.283851 1.425920 4.332159
v 2.283851 1.425920 4.299177
v 2.283851 1.927529 4.299177
v 2.283851 1.927529 4.332159
vn -0.0000 -1.0000 -0.0000
vn -0.0000 1.0000 -0.0000
vn -0.0000 -0.0000 -1.0000
vn -1.0000 -0.0000 -0.0000
vn -0.0000 -0.0000 1.0000
vn 1.0000 -0.0000 -0.0000
vt 0.502486 0.908774
vt 0.502486 0.897845
vt 0.993207 0.897845
vt 0.993207 0.908774
vt 0.007889 0.972242
vt 0.498610 0.972242
vt 0.498610 0.983171
vt 0.007889 0.983171
vt 0.000500 0.000500
vt 0.424686 0.000500
vt 0.424686 0.144179
vt 0.000500 0.144179
vt 0.870529 0.586703
vt 0.888934 0.586703
vt 0.888934 0.866616
vt 0.870529 0.866616
vt 0.437518 0.728864
vt 0.861704 0.728864
vt 0.861704 0.872543
vt 0.437518 0.872543
vt 0.868671 0.297594
vt 0.887076 0.297594
vt 0.887076 0.577506
vt 0.868671 0.577506
vt 0.007889 0.923942
vt 0.007889 0.913013
vt 0.498610 0.913013
vt 0.498610 0.923942
vt 0.007889 0.898206
vt 0.498610 0.898206
vt 0.498610 0.909135
vt 0.007889 0.909135
vt 0.000500 0.146173
vt 0.424686 0.146173
vt 0.424686 0.289852
vt 0.000500 0.289852
vt 0.947846 0.297594
vt 0.966251 0.297594
vt 0.966251 0.577506
vt 0.947846 0.577506
vt 0.437518 0.146173
vt 0.861704 0.146173
vt 0.861704 0.289852
vt 0.437518 0.289852
vt 0.910117 0.591652
vt 0.928522 0.591652
vt 0.928522 0.871565
vt 0.910117 0.871565
vt 0.502486 0.923581
vt 0.502486 0.912652
vt 0.993207 0.912652
vt 0.993207 0.923581
vt 0.502486 0.927459
vt 0.993207 0.927459
vt 0.993207 0.938389
vt 0.502486 0.938389
vt 0.000500 0.583191
vt 0.424686 0.583191
vt 0.424686 0.726870
vt 0.000500 0.726870
vt 0.870054 0.012644
vt 0.888459 0.012644
vt 0.888459 0.292556
vt 0.870054 0.292556
vt 0.437518 0.437518
vt 0.861704 0.437518
vt 0.861704 0.581198
vt 0.437518 0.581198
vt 0.908258 0.297594
vt 0.926663 0.297594
vt 0.926663 0.577506
vt 0.908258 0.577506
vt 0.007889 0.953557
vt 0.007889 0.942627
vt 0.498610 0.942627
vt 0.498610 0.953557
vt 0.502486 0.942267
vt 0.993207 0.942267
vt 0.993207 0.953196
vt 0.502486 0.953196
vt 0.000500 0.437518
vt 0.424686 0.437518
vt 0.424686 0.581198
vt 0.000500 0.581198
vt 0.949704 0.591652
vt 0.968109 0.591652
vt 0.968109 0.871564
vt 0.949704 0.871564
vt 0.000500 0.728864
vt 0.424686 0.728864
vt 0.424686 0.872543
vt 0.000500 0.872543
vt 0.928052 0.297594
vt 0.946457 0.297594
vt 0.946457 0.577506
vt 0.928052 0.577506
vt 0.007889 0.938750
vt 0.007889 0.927820
vt 0.498610 0.927820
vt 0.498610 0.938750
vt 0.502486 0.971881
vt 0.993207 0.971881
vt 0.993207 0.982810
vt 0.502486 0.982810
vt 0.000500 0.291846
vt 0.424686 0.291846
vt 0.424686 0.435525
vt 0.000500 0.435525
vt 0.889847 0.012644
vt 0.908252 0.012644
vt 0.908252 0.292556
vt 0.889847 0.292556
vt 0.428949 0.000500
vt 0.853135 0.000500
vt 0.853135 0.144179
vt 0.428949 0.144179
vt 0.888465 0.297594
vt 0.906870 0.297594
vt 0.906870 0.577506
vt 0.888465 0.577506
vt 0.007889 0.968364
vt 0.007889 0.957435
vt 0.498610 0.957435
vt 0.498610 0.968364
vt 0.502486 0.957074
vt 0.993207 0.957074
vt 0.993207 0.968003
vt 0.502486 0.968003
vt 0.437518 0.583191
vt 0.861704 0.583191
vt 0.861704 0.726870
vt 0.437518 0.726870
vt 0.890323 0.591652
vt 0.908728 0.591652
vt 0.908728 0.871565
vt 0.890323 0.871565
vt 0.437518 0.291846
vt 0.861704 0.291846
vt 0.861704 0.435525
vt 0.437518 0.435525
vt 0.929911 0.591652
vt 0.948315 0.591652
vt 0.948315 0.871565
vt 0.929911 0.871565
s 0
usemtl 15_-_Default
f 1/1/1 2/2/1 3/3/1
f 3/3/1 4/4/1 1/1/1
f 5/5/2 6/6/2 7/7/2
f 7/7/2 8/8/2 5/5/2
f 9/9/3 10/10/3 11/11/3
f 11/11/3 12/12/3 9/9/3
f 13/13/4 14/14/4 15/15/4
f 15/15/4 16/16/4 13/13/4
f 17/17/5 18/18/5 19/19/5
f 19/19/5 20/20/5 17/17/5
f 21/21/6 22/22/6 23/23/6
f 23/23/6 24/24/6 21/21/6
f 25/25/1 26/26/1 27/27/1
f 27/27/1 28/28/1 25/25/1
f 29/29/2 30/30/2 31/31/2
f 31/31/2 32/32/2 29/29/2
f 33/33/3 34/34/3 35/35/3
f 35/35/3 36/36/3 33/33/3
f 37/37/4 38/38/4 39/39/4
f 39/39/4 40/40/4 37/37/4
f 41/41/5 42/42/5 43/43/5
f 43/43/5 44/44/5 41/41/5
f 45/45/6 46/46/6 47/47/6
f 47/47/6 48/48/6 45/45/6
f 49/49/1 50/50/1 51/51/1
f 51/51/1 52/52/1 49/49/1
f 53/53/2 54/54/2 55/55/2
f 55/55/2 56/56/2 53/53/2
f 57/57/3 58/58/3 59/59/3
f 59/59/3 60/60/3 57/57/3
f 61/61/4 62/62/4 63/63/4
f 63/63/4 64/64/4 61/61/4
f 65/65/5 66/66/5 67/67/5
f 67/67/5 68/68/5 65/65/5
f 69/69/6 70/70/6 71/71/6
f 71/71/6 72/72/6 69/69/6
f 73/73/1 74/74/1 75/75/1
f 75/75/1 76/76/1 73/73/1
f 77/77/2 78/78/2 79/79/2
f 79/79/2 80/80/2 77/77/2
f 81/81/3 82/82/3 83/83/3
f 83/83/3 84/84/3 81/81/3
f 85/85/4 86/86/4 87/87/4
f 87/87/4 88/88/4 85/85/4
f 89/89/5 90/90/5 91/91/5
f 91/91/5 92/92/5 89/89/5
f 93/93/6 94/94/6 95/95/6
f 95/95/6 96/96/6 93/93/6
f 97/97/1 98/98/1 99/99/1
f 99/99/1 100/100/1 97/97/1
f 101/101/2 102/102/2 103/103/2
f 103/103/2 104/104/2 101/101/2
f 105/105/3 106/106/3 107/107/3
f 107/107/3 108/108/3 105/105/3
f 109/109/4 110/110/4 111/111/4
f 111/111/4 112/112/4 109/109/4
f 113/113/5 114/114/5 115/115/5
f 115/115/5 116/116/5 113/113/5
f 117/117/6 118/118/6 119/119/6
f 119/119/6 120/120/6 117/117/6
f 121/121/1 122/122/1 123/123/1
f 123/123/1 124/124/1 121/121/1
f 125/125/2 126/126/2 127/127/2
f 127/127/2 128/128/2 125/125/2
f 129/129/3 130/130/3 131/131/3
f 131/131/3 132/132/3 129/129/3
f 133/133/4 134/134/4 135/135/4
f 135/135/4 136/136/4 133/133/4
f 137/137/5 138/138/5 139/139/5
f 139/139/5 140/140/5 137/137/5
f 141/141/6 142/142/6 143/143/6
f 143/143/6 144/144/6 141/141/6
