# Blender 4.0.1
# www.blender.org
mtllib FloorMat.mtl
o Object_24
v 1.211860 -0.100577 -3.771840
v -1.405922 -0.100577 -3.771840
v -1.405923 -0.100577 -0.224829
v 1.211859 -0.100577 -0.224828
v 1.221182 -0.130600 -3.781840
v -1.415245 -0.130600 -3.781840
v -1.415245 -0.110577 -3.781840
v 1.221182 -0.110577 -3.781840
v -1.415245 -0.130600 -3.781840
v -1.415245 -0.130600 -0.214829
v -1.415245 -0.110577 -0.214829
v -1.415245 -0.110577 -3.781840
v -1.415245 -0.130600 -0.214829
v 1.221182 -0.130600 -0.214828
v 1.221182 -0.110577 -0.214828
v -1.415245 -0.110577 -0.214829
v 1.221182 -0.130600 -0.214828
v 1.221182 -0.130600 -3.781840
v 1.221182 -0.110577 -3.781840
v 1.221182 -0.110577 -0.214828
v 1.211860 -0.100577 -3.771840
v 1.221182 -0.110577 -3.781840
v -1.415245 -0.110577 -3.781840
v -1.405922 -0.100577 -3.771840
v -1.405922 -0.100577 -3.771840
v -1.415245 -0.110577 -3.781840
v -1.415245 -0.110577 -0.214829
v -1.405923 -0.100577 -0.224829
v -1.405923 -0.100577 -0.224829
v -1.415245 -0.110577 -0.214829
v 1.221182 -0.110577 -0.214828
v 1.211859 -0.100577 -0.224828
v 1.211859 -0.100577 -0.224828
v 1.221182 -0.110577 -0.214828
v 1.221182 -0.110577 -3.781840
v 1.211860 -0.100577 -3.771840
vn -0.0000 1.0000 -0.0000
vn -0.0000 -0.0000 -1.0000
vn -1.0000 -0.0000 -0.0000
vn -0.0000 -0.0000 1.0000
vn 1.0000 -0.0000 -0.0000
vn -0.0000 0.7071 -0.7071
vn -0.7314 0.6819 -0.0000
vn -0.0000 0.7071 0.7071
vn 0.7314 0.6819 -0.0000
vt 0.133057 0.002803
vt 0.866943 0.002803
vt 0.866943 0.997197
vt 0.133057 0.997197
vt 0.000000 0.496203
vt 1.000000 0.496203
vt 1.000000 0.503797
vt 0.000000 0.503797
vt 0.000000 0.497193
vt 1.000000 0.497193
vt 1.000000 0.502807
vt 0.000000 0.502807
vt 0.130443 0.000000
vt 0.869557 0.000000
vt 0.869557 1.000000
vt 0.130443 1.000000
s 0
usemtl 08_-_Default
f 1/1/1 2/2/1 3/3/1
f 3/3/1 4/4/1 1/1/1
f 5/5/2 6/6/2 7/7/2
f 7/7/2 8/8/2 5/5/2
f 9/9/3 10/10/3 11/11/3
f 11/11/3 12/12/3 9/9/3
f 13/5/4 14/6/4 15/7/4
f 15/7/4 16/8/4 13/5/4
f 17/9/5 18/10/5 19/11/5
f 19/11/5 20/12/5 17/9/5
f 21/1/6 22/13/6 23/14/6
f 23/14/6 24/2/6 21/1/6
s 1
f 25/2/7 26/14/7 27/15/7
s 0
f 27/15/7 28/3/7 25/2/7
f 29/3/8 30/15/8 31/16/8
f 31/16/8 32/4/8 29/3/8
s 1
f 33/4/9 34/16/9 35/13/9
s 0
f 35/13/9 36/1/9 33/4/9
